<?xml version="1.0" encoding="UTF-8"?> <!-- Generator: Adobe Illustrator 24.1.2, SVG Export Plug-In . SVG Version: 6.00 Build 0) --> <svg xmlns="http://www.w3.org/2000/svg" xmlns:xlink="http://www.w3.org/1999/xlink" version="1.1" id="Layer_1" x="0px" y="0px" viewBox="0 0 210.7 44.7" style="enable-background:new 0 0 210.7 44.7;" xml:space="preserve"> <style type="text/css"> .st0{fill:#004563;} </style> <polygon id="XMLID_20_" class="st0" points="69.7,25.1 72.6,31.8 82.8,31.8 82.8,25.1 "></polygon> <path id="XMLID_17_" class="st0" d="M100.7,40.4H87.3V6h13.4c10.8,0,18.3,7.4,18.3,17.1v0.1C119,32.8,111.5,40.4,100.7,40.4 M111.1,23.2c0-6.1-4.2-10.4-10.4-10.4h-5.8v20.7h5.8C106.9,33.5,111.1,29.4,111.1,23.2L111.1,23.2z"></path> <path id="XMLID_16_" class="st0" d="M162,24.4c-2.8-1-5.4-1.7-5.4-3.1v-0.1c0-1,0.9-1.8,2.8-1.8c1.9,0,4.5,0.9,7.1,2.5l2.2-5.5 c-2.7-1.7-6.1-2.7-9.2-2.7c-5.3,0-9.6,3-9.6,8.4v0.1c0,5.1,4.2,6.8,7.9,7.9c2.9,0.9,5.5,1.4,5.5,3v0.1c0,1.2-1,1.9-3.1,2 c-2.5,0.1-5.5-1-8.4-3l0,0l-2.2,5.4c3.3,2.3,7,3.3,10.4,3.3c5.7,0,10.1-2.7,10.1-8.5v-0.1C170,27.4,165.7,25.7,162,24.4"></path> <path id="XMLID_13_" class="st0" d="M134.5,13.5c-7.7,0-13,6.2-13,13.7v0.1c0,8.1,5.8,13.6,13.8,13.6h0.1c3.3,0,6.9-1,10.1-3.2 l-2.2-5.4c-2.9,1.9-5.5,2.7-7.9,2.6c-3.3,0-5.7-1.8-6.4-5.2h18.3c0-0.7,0.1-1.1,0.1-1.9v-0.1C147.3,20.4,143.3,13.5,134.5,13.5 M128.8,25.1c0.6-3.4,2.6-5.6,5.7-5.6c3.1,0,5.1,2.3,5.6,5.6H128.8z"></path> <path id="XMLID_10_" class="st0" d="M19.5,40.4H6.1V6h13.4c10.8,0,18.3,7.4,18.3,17.1v0.1C37.7,32.8,30.3,40.4,19.5,40.4 M29.8,23.2 c0-6.1-4.2-10.4-10.4-10.4h-5.8v20.7h5.8C25.7,33.5,29.8,29.4,29.8,23.2L29.8,23.2z"></path> <polygon id="XMLID_9_" class="st0" points="57.5,5.7 50.5,5.7 35.8,40.4 43.5,40.4 47,31.8 57,31.8 54.2,25.1 49.7,25.1 53.9,14.8 64.3,40.4 72.2,40.4 "></polygon> <polygon id="XMLID_8_" class="st0" points="176.4,27.2 180.4,22.7 180.4,4.5 172.9,4.5 172.9,40.4 180.4,40.4 180.4,31.7 "></polygon> <polygon id="XMLID_7_" class="st0" points="198.8,14 190.1,14 178.4,27.2 190.1,40.4 198.8,40.4 187.1,27.2 "></polygon> <path id="XMLID_2_" class="st0" d="M203,10.5c-1.7,0-3-1.4-3-3c0-1.7,1.3-3,3-3s3,1.4,3,3C206.1,9.2,204.7,10.5,203,10.5 M203,4.9 c-1.5,0-2.6,1.2-2.6,2.6s1.1,2.6,2.6,2.6s2.6-1.2,2.6-2.6S204.5,4.9,203,4.9 M203.7,7.8l0.8,1.1h-0.7l-0.7-1h-0.6v1h-0.6V6h1.3 c0.7,0,1.1,0.3,1.1,0.9C204.3,7.4,204.1,7.7,203.7,7.8 M203.2,6.5h-0.7v0.9h0.7c0.4,0,0.6-0.2,0.6-0.5S203.6,6.5,203.2,6.5"></path> </svg> 